<?xml version="1.0" encoding="UTF-8" standalone="no"?><!DOCTYPE svg PUBLIC "-//W3C//DTD SVG 1.1//EN" "http://www.w3.org/Graphics/SVG/1.1/DTD/svg11.dtd"><svg width="100%" height="100%" viewBox="0 0 36 36" version="1.1" xmlns="http://www.w3.org/2000/svg" xmlns:xlink="http://www.w3.org/1999/xlink" xml:space="preserve" xmlns:serif="http://www.serif.com/" style="fill-rule:evenodd;clip-rule:evenodd;stroke-linecap:round;stroke-linejoin:round;stroke-miterlimit:1.5;"><path id="Shape" d="M32.524,20.026c-0.104,0.105 -0.244,0.175 -0.384,0.21l-0.07,0c-0.14,0 -0.279,-0.035 -0.419,-0.14l-13.661,-11.39l-13.626,11.39c-0.14,0.105 -0.315,0.175 -0.489,0.14c-0.14,-0.035 -0.315,-0.105 -0.42,-0.21l-1.223,-1.467c-0.209,-0.245 -0.174,-0.664 0.105,-0.873l14.185,-11.81c0.839,-0.699 2.167,-0.699 3.005,0l4.822,4.018l0,-3.843c0,-0.349 0.279,-0.629 0.629,-0.629l3.773,0c0.349,0 0.629,0.28 0.629,0.629l0,8.036l4.332,3.599c0.21,0.209 0.28,0.628 0.035,0.873l-1.223,1.467Zm-3.144,9.364c0,0.699 -0.594,1.258 -1.258,1.258l-7.582,0l0,-7.582l-5.066,0l0,7.582l-7.581,0c-0.699,0 -1.258,-0.594 -1.258,-1.258l0,-9.468l0,-0.105l11.355,-9.364l11.355,9.364l0,9.573l0.035,0Z"/><path d="M35.5,9.25c0,-4.829 -3.921,-8.75 -8.75,-8.75l-17.5,0c-4.829,0 -8.75,3.921 -8.75,8.75l0,17.5c0,4.829 3.921,8.75 8.75,8.75l17.5,0c4.829,0 8.75,-3.921 8.75,-8.75l0,-17.5Z" style="fill:none;stroke:#000;stroke-width:1px;"/></svg>