<?xml version="1.0" encoding="UTF-8" standalone="no"?><!DOCTYPE svg PUBLIC "-//W3C//DTD SVG 1.1//EN" "http://www.w3.org/Graphics/SVG/1.1/DTD/svg11.dtd"><svg width="100%" height="100%" viewBox="0 0 36 36" version="1.1" xmlns="http://www.w3.org/2000/svg" xmlns:xlink="http://www.w3.org/1999/xlink" xml:space="preserve" xmlns:serif="http://www.serif.com/" style="fill-rule:evenodd;clip-rule:evenodd;stroke-linecap:round;stroke-linejoin:round;stroke-miterlimit:1.5;"><path id="Shape" d="M30.493,19.713c0,0.943 -0.754,1.697 -1.697,1.697l-7.386,0l0,7.386c0,0.943 -0.754,1.697 -1.697,1.697l-3.426,0c-0.943,0 -1.697,-0.754 -1.697,-1.697l0,-7.386l-7.386,0c-0.943,0 -1.697,-0.754 -1.697,-1.697l0,-3.394c0,-0.943 0.754,-1.698 1.697,-1.698l7.386,0l0,-7.417c0,-0.943 0.754,-1.697 1.697,-1.697l3.394,0c0.943,0 1.698,0.754 1.698,1.697l0,7.386l7.385,0c0.943,0 1.697,0.754 1.697,1.697l0,3.426l0.032,0Z"/><path d="M35.5,9.25c0,-4.829 -3.921,-8.75 -8.75,-8.75l-17.5,0c-4.829,0 -8.75,3.921 -8.75,8.75l0,17.5c0,4.829 3.921,8.75 8.75,8.75l17.5,0c4.829,0 8.75,-3.921 8.75,-8.75l0,-17.5Z" style="fill:none;stroke:#000;stroke-width:1px;"/></svg>