<?xml version="1.0" encoding="UTF-8" standalone="no"?><!DOCTYPE svg PUBLIC "-//W3C//DTD SVG 1.1//EN" "http://www.w3.org/Graphics/SVG/1.1/DTD/svg11.dtd"><svg width="100%" height="100%" viewBox="0 0 36 36" version="1.1" xmlns="http://www.w3.org/2000/svg" xmlns:xlink="http://www.w3.org/1999/xlink" xml:space="preserve" xmlns:serif="http://www.serif.com/" style="fill-rule:evenodd;clip-rule:evenodd;stroke-linecap:round;stroke-linejoin:round;stroke-miterlimit:1.5;"><path id="Shape" d="M30.508,32.756c-0.597,0 -1.194,-0.252 -1.603,-0.66l-6.097,-6.097c-2.043,1.445 -4.557,2.2 -7.071,2.2c-6.915,0 -12.477,-5.595 -12.477,-12.478c0,-6.882 5.594,-12.477 12.477,-12.477c6.883,0 12.477,5.595 12.477,12.477c0,2.515 -0.754,4.998 -2.2,7.072l6.066,6.097c0.408,0.409 0.66,1.006 0.66,1.603c0.031,1.226 -0.975,2.263 -2.232,2.263Zm-14.771,-24.986c-4.4,0 -7.952,3.551 -7.952,7.951c0,4.4 3.552,7.952 7.952,7.952c4.4,0 7.951,-3.552 7.951,-7.952c0,-4.4 -3.551,-7.951 -7.951,-7.951Z" style="fill:#8e8d8a;"/><path d="M35.5,9.25c0,-4.829 -3.921,-8.75 -8.75,-8.75l-17.5,0c-4.829,0 -8.75,3.921 -8.75,8.75l0,17.5c0,4.829 3.921,8.75 8.75,8.75l17.5,0c4.829,0 8.75,-3.921 8.75,-8.75l0,-17.5Z" style="fill:none;stroke:#8e8d8a;stroke-width:1px;"/></svg>